<mxfile host="app.diagrams.net" modified="2023-05-03T08:29:13.284Z" agent="Mozilla/5.0 (Windows NT 10.0; Win64; x64) AppleWebKit/537.36 (KHTML, like Gecko) Chrome/112.0.0.0 Safari/537.36" etag="6p7wScQtQOJJ3Z_CCSW4" version="21.2.6" type="device">
  <diagram name="페이지-1" id="qYV6jcrk37HbQIe_1-zE">
    <mxGraphModel dx="5736" dy="3184" grid="1" gridSize="10" guides="1" tooltips="1" connect="1" arrows="1" fold="1" page="1" pageScale="1" pageWidth="827" pageHeight="1169" math="0" shadow="0">
      <root>
        <mxCell id="0" />
        <mxCell id="1" parent="0" />
        <mxCell id="1aHo3bcAsOJPNasP1hEd-1" value="" style="rounded=0;whiteSpace=wrap;html=1;" vertex="1" parent="1">
          <mxGeometry x="120" y="120" width="1440" height="3000" as="geometry" />
        </mxCell>
        <mxCell id="1aHo3bcAsOJPNasP1hEd-5" value="&lt;font style=&quot;font-size: 70px;&quot;&gt;대충 &lt;font style=&quot;font-size: 70px;&quot;&gt;묵자&lt;/font&gt;~&lt;/font&gt;" style="text;html=1;strokeColor=none;fillColor=none;align=center;verticalAlign=middle;whiteSpace=wrap;rounded=0;" vertex="1" parent="1">
          <mxGeometry x="230" y="220" width="1160" height="470" as="geometry" />
        </mxCell>
        <mxCell id="1aHo3bcAsOJPNasP1hEd-6" value="&lt;font style=&quot;font-size: 80px;&quot;&gt;카테고리들&lt;/font&gt;" style="rounded=0;whiteSpace=wrap;html=1;" vertex="1" parent="1">
          <mxGeometry x="240" y="790" width="1190" height="480" as="geometry" />
        </mxCell>
        <mxCell id="1aHo3bcAsOJPNasP1hEd-7" value="&lt;font style=&quot;font-size: 80px;&quot;&gt;룰렛 돌아갈 자리&lt;/font&gt;" style="rounded=0;whiteSpace=wrap;html=1;" vertex="1" parent="1">
          <mxGeometry x="430" y="1810" width="820" height="740" as="geometry" />
        </mxCell>
      </root>
    </mxGraphModel>
  </diagram>
</mxfile>
